<?xml version="1.0" standalone="no"?>
<!DOCTYPE svg PUBLIC "-//W3C//DTD SVG 20010904//EN"
 "http://www.w3.org/TR/2001/REC-SVG-20010904/DTD/svg10.dtd">
<svg version="1.0" xmlns="http://www.w3.org/2000/svg"
 width="243.000000pt" height="198.000000pt" viewBox="0 0 243.000000 198.000000"
 preserveAspectRatio="xMidYMid meet">

<g transform="translate(0.000000,198.000000) scale(0.100000,-0.100000)"
fill="#000000" stroke="none">
<path d="M0 990 l0 -990 1215 0 1215 0 0 990 0 990 -1215 0 -1215 0 0 -990z
m1298 637 c2 -54 0 -68 -13 -73 -27 -11 -45 15 -45 66 0 64 8 82 34 78 19 -3
21 -10 24 -71z m-554 -17 c39 -43 39 -70 1 -70 -24 0 -85 60 -85 84 0 40 41
34 84 -14z m1124 -6 c2 -14 -11 -33 -38 -58 -43 -39 -56 -41 -74 -13 -9 13 -3
24 29 57 43 44 78 50 83 14z m-115 -318 c48 -69 87 -129 87 -135 0 -6 -109
-137 -241 -291 -328 -382 -322 -375 -341 -364 -29 17 -558 639 -558 656 0 10
38 72 85 138 l86 120 397 0 398 0 87 -124z m-1173 -121 c24 -29 -5 -45 -82
-45 -71 0 -88 10 -74 45 4 11 22 15 74 15 50 0 73 -4 82 -15z m1535 -15 c0
-24 -3 -25 -73 -28 -75 -3 -92 6 -78 43 5 13 20 15 78 13 70 -3 73 -4 73 -28z
m-1311 -326 c27 -10 18 -38 -24 -79 -33 -32 -44 -37 -57 -29 -30 19 -26 34 18
75 23 21 43 39 45 39 1 0 9 -3 18 -6z m1008 -34 c41 -41 44 -56 15 -74 -13 -8
-24 -3 -57 29 -42 41 -47 54 -28 73 19 19 27 15 70 -28z m-764 -266 c4 -26
-70 -96 -93 -88 -25 10 -17 46 17 81 36 38 71 41 76 7z m529 -6 c35 -34 43
-72 18 -82 -19 -7 -95 59 -95 83 0 42 34 41 77 -1z m-277 -235 c0 -67 -15 -88
-45 -63 -21 18 -20 113 1 135 28 27 44 1 44 -72z"/>
<path d="M1001 1273 c35 -43 65 -80 67 -83 4 -5 54 50 113 123 l31 37 -137 0
-136 0 62 -77z"/>
<path d="M1192 1262 l-73 -87 142 -3 c78 -1 144 0 147 2 4 5 -135 177 -141
175 -1 0 -35 -39 -75 -87z"/>
<path d="M1330 1344 c0 -8 124 -152 131 -153 6 -1 106 119 123 147 6 9 -22 12
-123 12 -72 0 -131 -3 -131 -6z"/>
<path d="M843 1263 c-27 -37 -53 -74 -57 -80 -6 -10 21 -13 119 -13 l125 0
-61 78 c-33 42 -64 78 -69 80 -4 2 -30 -28 -57 -65z"/>
<path d="M1570 1253 l-62 -78 117 -3 c65 -1 120 -1 122 2 6 6 -98 156 -108
156 -4 0 -35 -35 -69 -77z"/>
<path d="M812 1101 c44 -55 393 -460 395 -457 1 1 -18 64 -41 141 -24 77 -58
186 -75 243 l-32 102 -135 0 -135 0 23 -29z"/>
<path d="M1114 1088 c113 -369 152 -486 157 -480 6 7 159 501 159 515 0 4 -74
7 -165 7 l-164 0 13 -42z"/>
<path d="M1475 1118 c-17 -44 -144 -462 -142 -465 2 -1 96 105 210 237 l207
240 -135 0 c-99 0 -137 -3 -140 -12z"/>
</g>
</svg>
