<?xml version="1.0" standalone="no"?>
<!DOCTYPE svg PUBLIC "-//W3C//DTD SVG 20010904//EN"
 "http://www.w3.org/TR/2001/REC-SVG-20010904/DTD/svg10.dtd">
<svg version="1.0" xmlns="http://www.w3.org/2000/svg"
 width="243.000000pt" height="205.000000pt" viewBox="0 0 243.000000 205.000000"
 preserveAspectRatio="xMidYMid meet">

<g transform="translate(0.000000,205.000000) scale(0.100000,-0.100000)"
fill="#000000" stroke="none">
<path d="M0 1025 l0 -1025 1215 0 1215 0 0 1025 0 1025 -1215 0 -1215 0 0
-1025z m1268 696 c9 -5 12 -29 10 -82 -3 -71 -4 -74 -28 -74 -24 0 -25 3 -28
68 -4 82 11 110 46 88z m-510 -94 c47 -48 51 -61 22 -77 -17 -9 -27 -4 -65 31
-56 51 -59 84 -10 88 6 1 30 -18 53 -42z m1046 7 c19 -19 12 -35 -37 -82 -37
-36 -69 -39 -75 -8 -3 11 12 35 39 62 48 49 51 50 73 28z m-1395 -108 c32 -72
119 -115 266 -131 87 -9 147 -31 193 -70 l40 -35 47 24 c25 14 66 28 90 31 53
9 143 -16 182 -49 l27 -23 39 28 c78 57 187 60 275 8 l34 -19 36 28 c62 49 98
62 209 77 147 20 226 59 260 128 28 54 58 64 69 21 11 -44 -4 -234 -25 -315
-43 -166 -109 -267 -205 -314 -87 -42 -174 -49 -286 -20 -21 5 -28 0 -44 -27
-50 -84 -199 -215 -312 -271 l-50 -25 -50 27 c-119 65 -238 166 -295 251 -30
44 -37 49 -59 44 -140 -37 -259 -11 -353 75 -91 84 -157 288 -157 487 0 55 3
104 7 107 19 19 43 4 62 -37z m391 -859 c0 -30 -71 -100 -96 -95 -33 6 -28 38
12 79 44 45 84 53 84 16z m994 -16 c40 -41 45 -73 12 -79 -25 -5 -96 65 -96
95 0 37 40 29 84 -16z m-760 -144 c20 -32 -69 -121 -101 -101 -30 19 -26 34
21 80 46 47 61 51 80 21z m511 -8 c47 -42 60 -66 44 -85 -17 -21 -35 -17 -73
17 -41 35 -53 64 -36 84 17 21 25 19 65 -16z m-276 -113 c7 -9 11 -41 9 -83
-3 -65 -4 -68 -28 -68 -24 0 -25 3 -28 68 -3 64 7 97 28 97 4 0 13 -6 19 -14z"/>
<path d="M400 1391 c0 -38 36 -88 88 -125 37 -26 54 -31 118 -34 63 -4 75 -7
72 -21 -2 -12 -16 -17 -53 -19 -60 -4 -109 9 -160 43 -20 15 -39 24 -41 22
-10 -10 28 -103 52 -128 37 -38 114 -63 168 -54 71 11 81 11 81 -5 0 -34 -107
-47 -195 -24 -25 7 -25 7 5 -26 47 -51 118 -80 197 -80 37 0 78 4 92 10 23 8
24 12 15 42 -17 60 -11 165 12 209 19 39 20 42 3 60 -37 42 -82 59 -186 74
-109 15 -171 33 -226 65 -42 25 -42 25 -42 -9z"/>
<path d="M2048 1387 c-39 -20 -89 -34 -155 -44 -145 -23 -171 -31 -210 -66
l-35 -32 22 -65 c22 -65 22 -138 0 -196 -8 -20 -5 -24 26 -34 94 -31 220 -1
285 67 32 34 33 35 9 29 -58 -17 -126 -18 -164 -2 -41 17 -45 43 -5 38 13 -2
42 -6 65 -8 47 -7 129 24 162 59 22 24 56 127 42 127 -5 0 -12 -5 -16 -11 -3
-6 -30 -22 -58 -35 -58 -27 -156 -33 -175 -11 -17 21 -3 27 63 27 104 0 194
66 210 153 4 20 3 36 -1 36 -4 -1 -34 -15 -65 -32z"/>
<path d="M1016 1276 c-44 -17 -91 -58 -113 -100 -25 -48 -14 -169 23 -236 40
-75 173 -207 261 -259 l73 -43 83 56 c247 164 349 392 235 522 -76 86 -184 94
-267 18 -41 -36 -78 -44 -87 -19 -9 23 -84 63 -129 69 -24 4 -56 0 -79 -8z"/>
</g>
</svg>
